<svg xmlns="http://www.w3.org/2000/svg" xmlns:xlink="http://www.w3.org/1999/xlink" width="122" zoomAndPan="magnify" viewBox="0 0 91.5 86.249997" height="115" preserveAspectRatio="xMidYMid meet" version="1.0"><defs><g/><clipPath id="9467c9cc30"><path d="M 8.234375 7.148438 L 82.4375 7.148438 L 82.4375 81.351562 L 8.234375 81.351562 Z M 8.234375 7.148438 " clip-rule="nonzero"/></clipPath><clipPath id="c3612b56bd"><path d="M 45.335938 7.148438 C 24.847656 7.148438 8.234375 23.761719 8.234375 44.25 C 8.234375 64.742188 24.847656 81.351562 45.335938 81.351562 C 65.828125 81.351562 82.4375 64.742188 82.4375 44.25 C 82.4375 23.761719 65.828125 7.148438 45.335938 7.148438 Z M 45.335938 7.148438 " clip-rule="nonzero"/></clipPath><clipPath id="055a916bab"><path d="M 4.734375 43.21875 L 88.671875 43.21875 L 88.671875 85.011719 L 4.734375 85.011719 Z M 4.734375 43.21875 " clip-rule="nonzero"/></clipPath><clipPath id="598f45a02f"><path d="M 0.734375 0.21875 L 84.671875 0.21875 L 84.671875 42.011719 L 0.734375 42.011719 Z M 0.734375 0.21875 " clip-rule="nonzero"/></clipPath><clipPath id="5413f5f8bb"><rect x="0" width="85" y="0" height="43"/></clipPath><clipPath id="0a58f1dd60"><path d="M 0.195312 46.175781 L 90.707031 46.175781 L 90.707031 55.097656 L 0.195312 55.097656 Z M 0.195312 46.175781 " clip-rule="nonzero"/></clipPath><clipPath id="ef9fafe33a"><path d="M 4.816406 46.175781 L 85.847656 46.175781 C 87.074219 46.175781 88.25 46.664062 89.117188 47.53125 C 89.984375 48.398438 90.472656 49.574219 90.472656 50.800781 C 90.472656 52.027344 89.984375 53.203125 89.117188 54.070312 C 88.25 54.9375 87.074219 55.421875 85.847656 55.421875 L 4.816406 55.421875 C 3.59375 55.421875 2.414062 54.9375 1.546875 54.070312 C 0.679688 53.203125 0.195312 52.027344 0.195312 50.800781 C 0.195312 49.574219 0.679688 48.398438 1.546875 47.53125 C 2.414062 46.664062 3.59375 46.175781 4.816406 46.175781 Z M 4.816406 46.175781 " clip-rule="nonzero"/></clipPath><clipPath id="56ee449e0d"><path d="M 41.765625 0 L 48.914062 0 L 48.914062 7.148438 L 41.765625 7.148438 Z M 41.765625 0 " clip-rule="nonzero"/></clipPath><clipPath id="671f0ee060"><path d="M 45.339844 0 C 43.363281 0 41.765625 1.601562 41.765625 3.574219 C 41.765625 5.550781 43.363281 7.148438 45.339844 7.148438 C 47.3125 7.148438 48.914062 5.550781 48.914062 3.574219 C 48.914062 1.601562 47.3125 0 45.339844 0 Z M 45.339844 0 " clip-rule="nonzero"/></clipPath><clipPath id="e325e4532a"><path d="M 0.765625 0 L 7.914062 0 L 7.914062 7.148438 L 0.765625 7.148438 Z M 0.765625 0 " clip-rule="nonzero"/></clipPath><clipPath id="bd966990af"><path d="M 4.339844 0 C 2.363281 0 0.765625 1.601562 0.765625 3.574219 C 0.765625 5.550781 2.363281 7.148438 4.339844 7.148438 C 6.3125 7.148438 7.914062 5.550781 7.914062 3.574219 C 7.914062 1.601562 6.3125 0 4.339844 0 Z M 4.339844 0 " clip-rule="nonzero"/></clipPath><clipPath id="9342daf460"><rect x="0" width="8" y="0" height="8"/></clipPath><clipPath id="8aa2adec71"><path d="M 35.746094 24.398438 L 42.011719 24.398438 L 42.011719 43.21875 L 35.746094 43.21875 Z M 35.746094 24.398438 " clip-rule="nonzero"/></clipPath><clipPath id="2f78f254d8"><path d="M 38.878906 24.398438 C 40.609375 24.398438 42.011719 25.800781 42.011719 27.53125 L 42.011719 40.085938 C 42.011719 41.816406 40.609375 43.21875 38.878906 43.21875 C 37.148438 43.21875 35.746094 41.816406 35.746094 40.085938 L 35.746094 27.53125 C 35.746094 25.800781 37.148438 24.398438 38.878906 24.398438 Z M 38.878906 24.398438 " clip-rule="nonzero"/></clipPath><clipPath id="e3a5d9ff3e"><path d="M 0.746094 0.398438 L 7.011719 0.398438 L 7.011719 19.21875 L 0.746094 19.21875 Z M 0.746094 0.398438 " clip-rule="nonzero"/></clipPath><clipPath id="686e3c7419"><path d="M 3.878906 0.398438 C 5.609375 0.398438 7.011719 1.800781 7.011719 3.53125 L 7.011719 16.085938 C 7.011719 17.816406 5.609375 19.21875 3.878906 19.21875 C 2.148438 19.21875 0.746094 17.816406 0.746094 16.085938 L 0.746094 3.53125 C 0.746094 1.800781 2.148438 0.398438 3.878906 0.398438 Z M 3.878906 0.398438 " clip-rule="nonzero"/></clipPath><clipPath id="8f8ae243e9"><rect x="0" width="8" y="0" height="20"/></clipPath><clipPath id="7304c2021a"><path d="M 35.746094 24.398438 L 41.695312 24.398438 L 41.695312 42.988281 L 35.746094 42.988281 Z M 35.746094 24.398438 " clip-rule="nonzero"/></clipPath><clipPath id="ee8dc95d66"><path d="M 38.875 24.398438 C 40.605469 24.398438 42.007812 25.800781 42.007812 27.53125 L 42.007812 40.078125 C 42.007812 41.804688 40.605469 43.207031 38.875 43.207031 C 37.148438 43.207031 35.746094 41.804688 35.746094 40.078125 L 35.746094 27.53125 C 35.746094 25.800781 37.148438 24.398438 38.875 24.398438 Z M 38.875 24.398438 " clip-rule="nonzero"/></clipPath><clipPath id="060dbdd29d"><path d="M 46.441406 22.097656 L 52.371094 22.097656 L 52.371094 43.222656 L 46.441406 43.222656 Z M 46.441406 22.097656 " clip-rule="nonzero"/></clipPath><clipPath id="47b56d3632"><path d="M 49.40625 22.097656 C 51.042969 22.097656 52.371094 23.421875 52.371094 25.0625 L 52.371094 40.253906 C 52.371094 41.890625 51.042969 43.21875 49.40625 43.21875 C 47.765625 43.21875 46.441406 41.890625 46.441406 40.253906 L 46.441406 25.0625 C 46.441406 23.421875 47.765625 22.097656 49.40625 22.097656 Z M 49.40625 22.097656 " clip-rule="nonzero"/></clipPath><clipPath id="1db5373e33"><path d="M 0.441406 0.0976562 L 6.371094 0.0976562 L 6.371094 21.222656 L 0.441406 21.222656 Z M 0.441406 0.0976562 " clip-rule="nonzero"/></clipPath><clipPath id="489f05d915"><path d="M 3.40625 0.0976562 C 5.042969 0.0976562 6.371094 1.421875 6.371094 3.0625 L 6.371094 18.253906 C 6.371094 19.890625 5.042969 21.21875 3.40625 21.21875 C 1.765625 21.21875 0.441406 19.890625 0.441406 18.253906 L 0.441406 3.0625 C 0.441406 1.421875 1.765625 0.0976562 3.40625 0.0976562 Z M 3.40625 0.0976562 " clip-rule="nonzero"/></clipPath><clipPath id="6a77806b8b"><rect x="0" width="7" y="0" height="22"/></clipPath><clipPath id="d15091ca6e"><path d="M 46.441406 22.105469 L 52.386719 22.105469 L 52.386719 42.914062 L 46.441406 42.914062 Z M 46.441406 22.105469 " clip-rule="nonzero"/></clipPath><clipPath id="1b60c491c7"><path d="M 49.402344 22.105469 C 51.039062 22.105469 52.363281 23.429688 52.363281 25.066406 L 52.363281 40.246094 C 52.363281 41.882812 51.039062 43.207031 49.402344 43.207031 C 47.765625 43.207031 46.441406 41.882812 46.441406 40.246094 L 46.441406 25.066406 C 46.441406 23.429688 47.765625 22.105469 49.402344 22.105469 Z M 49.402344 22.105469 " clip-rule="nonzero"/></clipPath><clipPath id="59441f6137"><path d="M 46.441406 21.265625 L 58.265625 21.265625 L 58.265625 26.703125 L 46.441406 26.703125 Z M 46.441406 21.265625 " clip-rule="nonzero"/></clipPath><clipPath id="b6b325c825"><path d="M 48.671875 21.265625 L 56.023438 21.265625 C 57.253906 21.265625 58.253906 22.265625 58.253906 23.496094 L 58.253906 24.472656 C 58.253906 25.703125 57.253906 26.703125 56.023438 26.703125 L 48.671875 26.703125 C 47.4375 26.703125 46.441406 25.703125 46.441406 24.472656 L 46.441406 23.496094 C 46.441406 22.265625 47.4375 21.265625 48.671875 21.265625 Z M 48.671875 21.265625 " clip-rule="nonzero"/></clipPath><clipPath id="7af91ecec0"><path d="M 0.441406 0.265625 L 12.265625 0.265625 L 12.265625 5.703125 L 0.441406 5.703125 Z M 0.441406 0.265625 " clip-rule="nonzero"/></clipPath><clipPath id="b7cc005069"><path d="M 2.671875 0.265625 L 10.023438 0.265625 C 11.253906 0.265625 12.253906 1.265625 12.253906 2.496094 L 12.253906 3.472656 C 12.253906 4.703125 11.253906 5.703125 10.023438 5.703125 L 2.671875 5.703125 C 1.4375 5.703125 0.441406 4.703125 0.441406 3.472656 L 0.441406 2.496094 C 0.441406 1.265625 1.4375 0.265625 2.671875 0.265625 Z M 2.671875 0.265625 " clip-rule="nonzero"/></clipPath><clipPath id="f70545519b"><rect x="0" width="13" y="0" height="6"/></clipPath><clipPath id="6fff9808f7"><path d="M 46.445312 21.265625 L 58.335938 21.265625 L 58.335938 26.472656 L 46.445312 26.472656 Z M 46.445312 21.265625 " clip-rule="nonzero"/></clipPath><clipPath id="40c0e87929"><path d="M 48.671875 21.265625 L 56.011719 21.265625 C 57.242188 21.265625 58.238281 22.261719 58.238281 23.492188 L 58.238281 24.464844 C 58.238281 25.695312 57.242188 26.691406 56.011719 26.691406 L 48.671875 26.691406 C 47.441406 26.691406 46.445312 25.695312 46.445312 24.464844 L 46.445312 23.492188 C 46.445312 22.261719 47.441406 21.265625 48.671875 21.265625 Z M 48.671875 21.265625 " clip-rule="nonzero"/></clipPath><clipPath id="ddfa7fc524"><path d="M 47.199219 28.347656 L 56.203125 28.347656 L 56.203125 33.808594 L 47.199219 33.808594 Z M 47.199219 28.347656 " clip-rule="nonzero"/></clipPath><clipPath id="8c7d17fc67"><path d="M 49.429688 28.347656 L 53.957031 28.347656 C 55.1875 28.347656 56.1875 29.34375 56.1875 30.578125 L 56.1875 31.578125 C 56.1875 32.808594 55.1875 33.808594 53.957031 33.808594 L 49.429688 33.808594 C 48.199219 33.808594 47.199219 32.808594 47.199219 31.578125 L 47.199219 30.578125 C 47.199219 29.34375 48.199219 28.347656 49.429688 28.347656 Z M 49.429688 28.347656 " clip-rule="nonzero"/></clipPath><clipPath id="fd8ccd11fc"><path d="M 0.199219 0.347656 L 9.203125 0.347656 L 9.203125 5.808594 L 0.199219 5.808594 Z M 0.199219 0.347656 " clip-rule="nonzero"/></clipPath><clipPath id="c5d3c8337e"><path d="M 2.429688 0.347656 L 6.957031 0.347656 C 8.1875 0.347656 9.1875 1.34375 9.1875 2.578125 L 9.1875 3.578125 C 9.1875 4.808594 8.1875 5.808594 6.957031 5.808594 L 2.429688 5.808594 C 1.199219 5.808594 0.199219 4.808594 0.199219 3.578125 L 0.199219 2.578125 C 0.199219 1.34375 1.199219 0.347656 2.429688 0.347656 Z M 2.429688 0.347656 " clip-rule="nonzero"/></clipPath><clipPath id="b78fdc6360"><rect x="0" width="10" y="0" height="6"/></clipPath><clipPath id="575aa7cbab"><path d="M 47.199219 28.347656 L 56.121094 28.347656 L 56.121094 33.550781 L 47.199219 33.550781 Z M 47.199219 28.347656 " clip-rule="nonzero"/></clipPath><clipPath id="919973e469"><path d="M 49.429688 28.347656 L 53.953125 28.347656 C 55.183594 28.347656 56.179688 29.34375 56.179688 30.578125 L 56.179688 31.578125 C 56.179688 32.808594 55.183594 33.804688 53.953125 33.804688 L 49.429688 33.804688 C 48.199219 33.804688 47.199219 32.808594 47.199219 31.578125 L 47.199219 30.578125 C 47.199219 29.34375 48.199219 28.347656 49.429688 28.347656 Z M 49.429688 28.347656 " clip-rule="nonzero"/></clipPath><clipPath id="bc78924603"><path d="M 35.746094 18.132812 L 42.011719 18.132812 L 42.011719 24.398438 L 35.746094 24.398438 Z M 35.746094 18.132812 " clip-rule="nonzero"/></clipPath><clipPath id="ea72ddf5fa"><path d="M 38.878906 18.132812 C 37.148438 18.132812 35.746094 19.535156 35.746094 21.265625 C 35.746094 22.996094 37.148438 24.398438 38.878906 24.398438 C 40.609375 24.398438 42.011719 22.996094 42.011719 21.265625 C 42.011719 19.535156 40.609375 18.132812 38.878906 18.132812 Z M 38.878906 18.132812 " clip-rule="nonzero"/></clipPath><clipPath id="ffa24d4f81"><path d="M 0.746094 0.132812 L 7.011719 0.132812 L 7.011719 6.398438 L 0.746094 6.398438 Z M 0.746094 0.132812 " clip-rule="nonzero"/></clipPath><clipPath id="5317391aa4"><path d="M 3.878906 0.132812 C 2.148438 0.132812 0.746094 1.535156 0.746094 3.265625 C 0.746094 4.996094 2.148438 6.398438 3.878906 6.398438 C 5.609375 6.398438 7.011719 4.996094 7.011719 3.265625 C 7.011719 1.535156 5.609375 0.132812 3.878906 0.132812 Z M 3.878906 0.132812 " clip-rule="nonzero"/></clipPath><clipPath id="9c58b952fc"><rect x="0" width="8" y="0" height="7"/></clipPath><clipPath id="e6a1b21b4c"><path d="M 35.746094 18.132812 L 41.695312 18.132812 L 41.695312 24.082031 L 35.746094 24.082031 Z M 35.746094 18.132812 " clip-rule="nonzero"/></clipPath><clipPath id="879a4fd1eb"><path d="M 38.875 18.132812 C 37.148438 18.132812 35.746094 19.535156 35.746094 21.265625 C 35.746094 22.992188 37.148438 24.394531 38.875 24.394531 C 40.605469 24.394531 42.007812 22.992188 42.007812 21.265625 C 42.007812 19.535156 40.605469 18.132812 38.875 18.132812 Z M 38.875 18.132812 " clip-rule="nonzero"/></clipPath></defs><g clip-path="url(#9467c9cc30)"><g clip-path="url(#c3612b56bd)"><path stroke-linecap="butt" transform="matrix(0.743534, 0, 0, 0.743534, 8.235878, 7.150147)" fill="none" stroke-linejoin="miter" d="M 49.896895 -0.00229895 C 22.341639 -0.00229895 -0.00202164 22.341362 -0.00202164 49.896618 C -0.00202164 77.457127 22.341639 99.795534 49.896895 99.795534 C 77.457404 99.795534 99.795812 77.457127 99.795812 49.896618 C 99.795812 22.341362 77.457404 -0.00229895 49.896895 -0.00229895 Z M 49.896895 -0.00229895 " stroke="#7ed957" stroke-width="12" stroke-opacity="1" stroke-miterlimit="4"/></g></g><g clip-path="url(#055a916bab)"><g transform="matrix(1, 0, 0, 1, 4, 43)"><g clip-path="url(#5413f5f8bb)"><g clip-path="url(#598f45a02f)"><path fill="#ffffff" d="M 0.734375 0.21875 L 84.644531 0.21875 L 84.644531 42.011719 L 0.734375 42.011719 Z M 0.734375 0.21875 " fill-opacity="1" fill-rule="nonzero"/></g></g></g></g><g clip-path="url(#0a58f1dd60)"><g clip-path="url(#ef9fafe33a)"><path stroke-linecap="butt" transform="matrix(0.743534, 0, 0, 0.743534, 0.194449, 46.175932)" fill="none" stroke-linejoin="miter" d="M 6.216197 -0.00020223 L 115.197358 -0.00020223 C 116.846995 -0.00020223 118.428336 0.656501 119.59464 1.822805 C 120.760945 2.989109 121.417648 4.57045 121.417648 6.220088 C 121.417648 7.869725 120.760945 9.451066 119.59464 10.61737 C 118.428336 11.783675 116.846995 12.435124 115.197358 12.435124 L 6.216197 12.435124 C 4.571813 12.435124 2.985219 11.783675 1.818915 10.61737 C 0.65261 9.451066 0.00116122 7.869725 0.00116122 6.220088 C 0.00116122 4.57045 0.65261 2.989109 1.818915 1.822805 C 2.985219 0.656501 4.571813 -0.00020223 6.216197 -0.00020223 Z M 6.216197 -0.00020223 " stroke="#7ed957" stroke-width="10" stroke-opacity="1" stroke-miterlimit="4"/></g></g><g clip-path="url(#56ee449e0d)"><g clip-path="url(#671f0ee060)"><g transform="matrix(1, 0, 0, 1, 41, 0)"><g clip-path="url(#9342daf460)"><g clip-path="url(#e325e4532a)"><g clip-path="url(#bd966990af)"><path fill="#7ed957" d="M 0.765625 0 L 7.914062 0 L 7.914062 7.148438 L 0.765625 7.148438 Z M 0.765625 0 " fill-opacity="1" fill-rule="nonzero"/></g></g></g></g></g></g><g clip-path="url(#8aa2adec71)"><g clip-path="url(#2f78f254d8)"><g transform="matrix(1, 0, 0, 1, 35, 24)"><g clip-path="url(#8f8ae243e9)"><g clip-path="url(#e3a5d9ff3e)"><g clip-path="url(#686e3c7419)"><path fill="#00bf63" d="M 0.746094 0.398438 L 7.011719 0.398438 L 7.011719 19.21875 L 0.746094 19.21875 Z M 0.746094 0.398438 " fill-opacity="1" fill-rule="nonzero"/></g></g></g></g></g></g><g clip-path="url(#7304c2021a)"><g clip-path="url(#ee8dc95d66)"><path stroke-linecap="butt" transform="matrix(0.743534, 0, 0, 0.743534, 35.745584, 24.398681)" fill="none" stroke-linejoin="miter" d="M 4.208839 -0.000327689 C 6.536194 -0.000327689 8.422245 1.885723 8.422245 4.213079 L 8.422245 21.087719 C 8.422245 23.40982 6.536194 25.295871 4.208839 25.295871 C 1.886737 25.295871 0.000685937 23.40982 0.000685937 21.087719 L 0.000685937 4.213079 C 0.000685937 1.885723 1.886737 -0.000327689 4.208839 -0.000327689 Z M 4.208839 -0.000327689 " stroke="#00bf63" stroke-width="4" stroke-opacity="1" stroke-miterlimit="4"/></g></g><g clip-path="url(#060dbdd29d)"><g clip-path="url(#47b56d3632)"><g transform="matrix(1, 0, 0, 1, 46, 22)"><g clip-path="url(#6a77806b8b)"><g clip-path="url(#1db5373e33)"><g clip-path="url(#489f05d915)"><path fill="#00bf63" d="M 0.441406 0.0976562 L 6.371094 0.0976562 L 6.371094 21.222656 L 0.441406 21.222656 Z M 0.441406 0.0976562 " fill-opacity="1" fill-rule="nonzero"/></g></g></g></g></g></g><g clip-path="url(#d15091ca6e)"><g clip-path="url(#1b60c491c7)"><path stroke-linecap="butt" transform="matrix(0.743534, 0, 0, 0.743534, 46.439766, 22.103781)" fill="none" stroke-linejoin="miter" d="M 3.984453 0.00226984 C 6.185721 0.00226984 7.9667 1.783248 7.9667 3.984517 L 7.9667 24.400098 C 7.9667 26.601366 6.185721 28.382344 3.984453 28.382344 C 1.783185 28.382344 0.00220646 26.601366 0.00220646 24.400098 L 0.00220646 3.984517 C 0.00220646 1.783248 1.783185 0.00226984 3.984453 0.00226984 Z M 3.984453 0.00226984 " stroke="#00bf63" stroke-width="4" stroke-opacity="1" stroke-miterlimit="4"/></g></g><g clip-path="url(#59441f6137)"><g clip-path="url(#b6b325c825)"><g transform="matrix(1, 0, 0, 1, 46, 21)"><g clip-path="url(#f70545519b)"><g clip-path="url(#7af91ecec0)"><g clip-path="url(#b7cc005069)"><path fill="#00bf63" d="M 0.441406 0.265625 L 12.246094 0.265625 L 12.246094 5.703125 L 0.441406 5.703125 Z M 0.441406 0.265625 " fill-opacity="1" fill-rule="nonzero"/></g></g></g></g></g></g><g clip-path="url(#6fff9808f7)"><g clip-path="url(#40c0e87929)"><path stroke-linecap="butt" transform="matrix(0.743534, 0, 0, 0.743534, 46.445938, 21.26603)" fill="none" stroke-linejoin="miter" d="M 2.993725 -0.000545308 L 12.865283 -0.000545308 C 14.520175 -0.000545308 15.859849 1.339129 15.859849 2.99402 L 15.859849 4.302172 C 15.859849 5.957064 14.520175 7.296738 12.865283 7.296738 L 2.993725 7.296738 C 1.338833 7.296738 -0.000840716 5.957064 -0.000840716 4.302172 L -0.000840716 2.99402 C -0.000840716 1.339129 1.338833 -0.000545308 2.993725 -0.000545308 Z M 2.993725 -0.000545308 " stroke="#00bf63" stroke-width="4" stroke-opacity="1" stroke-miterlimit="4"/></g></g><g clip-path="url(#ddfa7fc524)"><g clip-path="url(#8c7d17fc67)"><g transform="matrix(1, 0, 0, 1, 47, 28)"><g clip-path="url(#b78fdc6360)"><g clip-path="url(#fd8ccd11fc)"><g clip-path="url(#c5d3c8337e)"><path fill="#00bf63" d="M 0.199219 0.347656 L 9.183594 0.347656 L 9.183594 5.808594 L 0.199219 5.808594 Z M 0.199219 0.347656 " fill-opacity="1" fill-rule="nonzero"/></g></g></g></g></g></g><g clip-path="url(#575aa7cbab)"><g clip-path="url(#919973e469)"><path stroke-linecap="butt" transform="matrix(0.743534, 0, 0, 0.743534, 47.200003, 28.347181)" fill="none" stroke-linejoin="miter" d="M 2.998764 0.000639016 L 9.082461 0.000639016 C 10.737352 0.000639016 12.077026 1.340313 12.077026 3.000458 L 12.077026 4.345386 C 12.077026 6.000277 10.737352 7.339951 9.082461 7.339951 L 2.998764 7.339951 C 1.343873 7.339951 -0.00105457 6.000277 -0.00105457 4.345386 L -0.00105457 3.000458 C -0.00105457 1.340313 1.343873 0.000639016 2.998764 0.000639016 Z M 2.998764 0.000639016 " stroke="#00bf63" stroke-width="6" stroke-opacity="1" stroke-miterlimit="4"/></g></g><g clip-path="url(#bc78924603)"><g clip-path="url(#ea72ddf5fa)"><g transform="matrix(1, 0, 0, 1, 35, 18)"><g clip-path="url(#9c58b952fc)"><g clip-path="url(#ffa24d4f81)"><g clip-path="url(#5317391aa4)"><path fill="#ff3131" d="M 0.746094 0.132812 L 7.011719 0.132812 L 7.011719 6.398438 L 0.746094 6.398438 Z M 0.746094 0.132812 " fill-opacity="1" fill-rule="nonzero"/></g></g></g></g></g></g><g clip-path="url(#e6a1b21b4c)"><g clip-path="url(#879a4fd1eb)"><path stroke-linecap="butt" transform="matrix(0.743534, 0, 0, 0.743534, 35.745399, 18.13338)" fill="none" stroke-linejoin="miter" d="M 4.209087 -0.000762928 C 1.886986 -0.000762928 0.000934897 1.885288 0.000934897 4.212643 C 0.000934897 6.534745 1.886986 8.420796 4.209087 8.420796 C 6.536443 8.420796 8.422493 6.534745 8.422493 4.212643 C 8.422493 1.885288 6.536443 -0.000762928 4.209087 -0.000762928 Z M 4.209087 -0.000762928 " stroke="#ff3131" stroke-width="4" stroke-opacity="1" stroke-miterlimit="4"/></g></g><g fill="#00bf63" fill-opacity="1"><g transform="translate(13.922543, 67.85523)"><g><path d="M 7.140625 -4.75 L 9.46875 -10.6875 C 9.5625 -10.9375 9.722656 -11.132812 9.953125 -11.28125 C 10.179688 -11.4375 10.429688 -11.515625 10.703125 -11.515625 L 12.25 -11.515625 C 12.488281 -11.515625 12.695312 -11.425781 12.875 -11.25 C 13.050781 -11.070312 13.140625 -10.863281 13.140625 -10.625 L 13.140625 -0.90625 C 13.140625 -0.65625 13.050781 -0.441406 12.875 -0.265625 C 12.695312 -0.0859375 12.488281 0 12.25 0 L 11.015625 0 C 10.773438 0 10.5625 -0.0859375 10.375 -0.265625 C 10.195312 -0.441406 10.109375 -0.65625 10.109375 -0.90625 L 10.109375 -6.296875 C 10.109375 -6.304688 10.101562 -6.3125 10.09375 -6.3125 C 10.082031 -6.3125 10.078125 -6.304688 10.078125 -6.296875 L 8.875 -3.203125 C 8.78125 -2.953125 8.617188 -2.75 8.390625 -2.59375 C 8.160156 -2.4375 7.910156 -2.359375 7.640625 -2.359375 L 6.59375 -2.359375 C 6.320312 -2.359375 6.070312 -2.4375 5.84375 -2.59375 C 5.613281 -2.75 5.453125 -2.953125 5.359375 -3.203125 L 4.15625 -6.296875 C 4.15625 -6.304688 4.148438 -6.3125 4.140625 -6.3125 C 4.128906 -6.3125 4.125 -6.304688 4.125 -6.296875 L 4.125 -0.90625 C 4.125 -0.65625 4.03125 -0.441406 3.84375 -0.265625 C 3.664062 -0.0859375 3.457031 0 3.21875 0 L 2.046875 0 C 1.804688 0 1.597656 -0.0859375 1.421875 -0.265625 C 1.242188 -0.441406 1.15625 -0.65625 1.15625 -0.90625 L 1.15625 -10.625 C 1.15625 -10.863281 1.242188 -11.070312 1.421875 -11.25 C 1.597656 -11.425781 1.804688 -11.515625 2.046875 -11.515625 L 3.53125 -11.515625 C 3.800781 -11.515625 4.050781 -11.4375 4.28125 -11.28125 C 4.507812 -11.132812 4.671875 -10.9375 4.765625 -10.6875 L 7.09375 -4.75 C 7.09375 -4.738281 7.097656 -4.734375 7.109375 -4.734375 C 7.128906 -4.734375 7.140625 -4.738281 7.140625 -4.75 Z M 7.140625 -4.75 "/></g></g></g><g fill="#00bf63" fill-opacity="1"><g transform="translate(33.994637, 67.85523)"><g><path d="M 1.15625 -0.90625 L 1.15625 -10.625 C 1.15625 -10.863281 1.242188 -11.070312 1.421875 -11.25 C 1.597656 -11.425781 1.804688 -11.515625 2.046875 -11.515625 L 7.828125 -11.515625 C 8.066406 -11.515625 8.273438 -11.425781 8.453125 -11.25 C 8.640625 -11.070312 8.734375 -10.863281 8.734375 -10.625 L 8.734375 -9.890625 C 8.734375 -9.648438 8.640625 -9.441406 8.453125 -9.265625 C 8.273438 -9.085938 8.066406 -9 7.828125 -9 L 4.453125 -9 C 4.359375 -9 4.3125 -8.957031 4.3125 -8.875 L 4.3125 -7.25 C 4.3125 -7.144531 4.359375 -7.09375 4.453125 -7.09375 L 7.515625 -7.09375 C 7.753906 -7.09375 7.960938 -7.003906 8.140625 -6.828125 C 8.316406 -6.648438 8.40625 -6.441406 8.40625 -6.203125 L 8.40625 -5.640625 C 8.40625 -5.390625 8.316406 -5.175781 8.140625 -5 C 7.960938 -4.820312 7.753906 -4.734375 7.515625 -4.734375 L 4.453125 -4.734375 C 4.359375 -4.734375 4.3125 -4.691406 4.3125 -4.609375 L 4.3125 -2.671875 C 4.3125 -2.578125 4.359375 -2.53125 4.453125 -2.53125 L 7.828125 -2.53125 C 8.066406 -2.53125 8.273438 -2.4375 8.453125 -2.25 C 8.640625 -2.070312 8.734375 -1.863281 8.734375 -1.625 L 8.734375 -0.90625 C 8.734375 -0.65625 8.640625 -0.441406 8.453125 -0.265625 C 8.273438 -0.0859375 8.066406 0 7.828125 0 L 2.046875 0 C 1.804688 0 1.597656 -0.0859375 1.421875 -0.265625 C 1.242188 -0.441406 1.15625 -0.65625 1.15625 -0.90625 Z M 1.15625 -0.90625 "/></g></g></g><g fill="#00bf63" fill-opacity="1"><g transform="translate(49.491436, 67.85523)"><g><path d="M 7.703125 -5.21875 L 7.703125 -10.625 C 7.703125 -10.863281 7.789062 -11.070312 7.96875 -11.25 C 8.144531 -11.425781 8.351562 -11.515625 8.59375 -11.515625 L 9.875 -11.515625 C 10.113281 -11.515625 10.320312 -11.425781 10.5 -11.25 C 10.6875 -11.070312 10.78125 -10.863281 10.78125 -10.625 L 10.78125 -0.90625 C 10.78125 -0.65625 10.6875 -0.441406 10.5 -0.265625 C 10.320312 -0.0859375 10.113281 0 9.875 0 L 8.59375 0 C 8 0 7.5625 -0.257812 7.28125 -0.78125 L 4.265625 -6.296875 C 4.265625 -6.304688 4.257812 -6.3125 4.25 -6.3125 C 4.238281 -6.3125 4.234375 -6.304688 4.234375 -6.296875 L 4.234375 -0.90625 C 4.234375 -0.65625 4.140625 -0.441406 3.953125 -0.265625 C 3.773438 -0.0859375 3.566406 0 3.328125 0 L 2.046875 0 C 1.804688 0 1.597656 -0.0859375 1.421875 -0.265625 C 1.242188 -0.441406 1.15625 -0.65625 1.15625 -0.90625 L 1.15625 -10.625 C 1.15625 -10.863281 1.242188 -11.070312 1.421875 -11.25 C 1.597656 -11.425781 1.804688 -11.515625 2.046875 -11.515625 L 3.328125 -11.515625 C 3.929688 -11.515625 4.375 -11.253906 4.65625 -10.734375 L 7.671875 -5.21875 C 7.671875 -5.207031 7.675781 -5.203125 7.6875 -5.203125 C 7.695312 -5.203125 7.703125 -5.207031 7.703125 -5.21875 Z M 7.703125 -5.21875 "/></g></g></g><g fill="#00bf63" fill-opacity="1"><g transform="translate(67.196996, 67.85523)"><g><path d="M 7.34375 -4.5 L 7.34375 -10.625 C 7.34375 -10.863281 7.429688 -11.070312 7.609375 -11.25 C 7.785156 -11.425781 7.992188 -11.515625 8.234375 -11.515625 L 9.5625 -11.515625 C 9.800781 -11.515625 10.007812 -11.425781 10.1875 -11.25 C 10.375 -11.070312 10.46875 -10.863281 10.46875 -10.625 L 10.46875 -4.734375 C 10.46875 -3.117188 10.054688 -1.898438 9.234375 -1.078125 C 8.421875 -0.253906 7.25 0.15625 5.71875 0.15625 C 4.195312 0.15625 3.03125 -0.253906 2.21875 -1.078125 C 1.40625 -1.898438 1 -3.117188 1 -4.734375 L 1 -10.625 C 1 -10.863281 1.085938 -11.070312 1.265625 -11.25 C 1.441406 -11.425781 1.648438 -11.515625 1.890625 -11.515625 L 3.28125 -11.515625 C 3.519531 -11.515625 3.726562 -11.425781 3.90625 -11.25 C 4.09375 -11.070312 4.1875 -10.863281 4.1875 -10.625 L 4.1875 -4.5 C 4.1875 -3.75 4.316406 -3.203125 4.578125 -2.859375 C 4.835938 -2.523438 5.226562 -2.359375 5.75 -2.359375 C 6.28125 -2.359375 6.675781 -2.523438 6.9375 -2.859375 C 7.207031 -3.203125 7.34375 -3.75 7.34375 -4.5 Z M 7.34375 -4.5 "/></g></g></g></svg>